<svg xmlns="http://www.w3.org/2000/svg" height="800" width="1200" viewBox="-74.25 -41.8345 643.5 251.007"><path d="M44.436 109.186c12.88 0 19.107-13.093 19.107-24.972 0-11.88-6.034-25.29-19.107-25.29-13.632 0-19.647 13.41-19.647 25.29 0 11.88 6.208 24.972 19.647 24.972m43.906 5.52c0 6.33 0 16.186-11.89 16.186-7.257 0-10.157-3.995-11.9-10.52-6.346 7.57-14.107 11.524-23.601 11.524C17.736 131.896 0 112.076 0 84.214c0-27.215 18.25-48.05 40.95-48.05 9.139 0 18.088 3.599 23.602 11.346.688-6.024 5.886-10.311 11.9-10.311 11.89 0 11.89 9.826 11.89 16.216zm51.242-5.53c12.88 0 19.255-13.439 19.255-24.962 0-11.697-6.38-25.3-19.255-25.3-13.3 0-19.469 12.375-19.469 24.433 0 12.063 5.827 25.83 19.469 25.83M95.316 50.983c0-8.251 5.138-13.785 12.385-13.785 6.85 0 10.85 3.816 12.414 10.31 4.629-7.558 14.281-11.345 23.602-11.345 26.63 0 39.896 24.968 39.896 49.064 0 23.433-15.79 46.668-40.767 46.668-7.801 0-16.192-2.94-22.726-8.613v30.3c0 8.246-5.167 13.755-12.414 13.755s-12.385-5.51-12.385-13.756V50.984zm94.168.001c0-8.251 5.153-13.785 12.395-13.785 7.227 0 12.394 5.534 12.394 13.785v66.082c0 8.296-5.167 13.826-12.394 13.826-7.242 0-12.395-5.53-12.395-13.826zm26.359-37.362c0 7.772-6.218 14.28-13.97 14.28-7.414 0-13.953-6.706-13.953-14.28C187.92 6.564 194.459 0 201.874 0c7.4 0 13.969 6.4 13.969 13.622" fill="#fc4c02"/><path d="M264.204 58.924c-12.94 0-19.285 13.41-19.285 24.913 0 13.266 6.35 25.349 19.285 25.349 13.25 0 19.448-12.405 19.448-24.458 0-12.048-5.85-25.804-19.448-25.804m44.237 63.701c0 29.779-19.468 44.713-47.653 44.713-10.187 0-39.114-4.98-39.114-18.552 0-4.698 5.157-10.895 9.989-10.895 7.91 0 16.676 7.791 31.006 7.791 12.024 0 20.988-7.049 20.988-19.646v-5.831h-.327c-5.222 7.588-13.612 11.686-25.012 11.686-25.957 0-38.199-22.903-38.199-47.539 0-24.953 15.85-48.193 40.823-48.193 8.434 0 18.067 3.792 22.71 11.346 1.56-6.5 5.5-10.316 12.405-10.316 7.246 0 12.384 5.534 12.384 13.8zm68.696-46.821c-1.371-10.876-8.247-18.949-19.78-18.949-11.019 0-18.464 8.41-19.661 18.949zM338.24 92.326c1.713 12.192 11.89 17.885 23.393 17.885 12.761 0 21.533-9.99 28.072-9.99 5.35 0 10.177 5.327 10.177 10.683 0 10.652-22.047 20.987-40.48 20.987-27.899 0-46.481-20.314-46.481-47.692 0-25.106 18.24-48.035 44.44-48.035 26.84 0 44.58 24.453 44.58 45.104 0 7.425-3.277 11.049-10.865 11.049H338.24zm131.916-16.221c-1.346-10.855-8.261-18.948-19.79-18.948-11.028 0-18.443 8.43-19.621 18.948zM431.27 92.633c1.733 12.261 11.86 17.904 23.414 17.904 12.716 0 21.507-9.999 28.041-9.999 5.356 0 10.172 5.327 10.172 10.663 0 10.672-22.047 21.017-40.44 21.017-27.914 0-46.51-20.33-46.51-47.693 0-25.165 18.26-48.039 44.42-48.039 26.864 0 44.634 24.438 44.634 45.1 0 7.434-3.277 11.037-10.915 11.037H431.27z" fill="#4a494a"/></svg>